<mxfile host="app.diagrams.net" modified="2022-04-17T06:48:28.782Z" agent="5.0 (X11; Linux x86_64) AppleWebKit/537.36 (KHTML, like Gecko) Chrome/99.0.4844.82 Safari/537.36" etag="T4XrOHP-nRxSXMnXJPUH" version="17.4.5" type="github">
  <diagram id="tk6rihhnIVDETbvAgUTu" name="第 1 页">
    <mxGraphModel dx="863" dy="464" grid="0" gridSize="10" guides="1" tooltips="1" connect="1" arrows="1" fold="1" page="1" pageScale="1" pageWidth="1169" pageHeight="827" math="0" shadow="0">
      <root>
        <mxCell id="0" />
        <mxCell id="1" parent="0" />
        <mxCell id="GFKTN1XEtl8pyvi_96BX-1" value="&lt;font style=&quot;font-size: 11px ; line-height: 1.2&quot;&gt;:会话界面&lt;/font&gt;" style="shape=umlLifeline;perimeter=lifelinePerimeter;whiteSpace=wrap;html=1;container=1;collapsible=0;recursiveResize=0;outlineConnect=0;rounded=1;shadow=0;comic=0;labelBackgroundColor=none;strokeWidth=1;fontFamily=Verdana;fontSize=12;align=center;" vertex="1" parent="1">
          <mxGeometry x="344" y="207" width="100" height="337" as="geometry" />
        </mxCell>
        <mxCell id="GFKTN1XEtl8pyvi_96BX-2" value="" style="html=1;points=[];perimeter=orthogonalPerimeter;rounded=0;shadow=0;comic=0;labelBackgroundColor=none;strokeWidth=1;fontFamily=Verdana;fontSize=12;align=center;" vertex="1" parent="GFKTN1XEtl8pyvi_96BX-1">
          <mxGeometry x="45" y="100" width="10" height="203" as="geometry" />
        </mxCell>
        <mxCell id="GFKTN1XEtl8pyvi_96BX-3" value=":聊天后台" style="shape=umlLifeline;perimeter=lifelinePerimeter;whiteSpace=wrap;html=1;container=1;collapsible=0;recursiveResize=0;outlineConnect=0;rounded=1;shadow=0;comic=0;labelBackgroundColor=none;strokeWidth=1;fontFamily=Verdana;fontSize=12;align=center;" vertex="1" parent="1">
          <mxGeometry x="504" y="207" width="100" height="338" as="geometry" />
        </mxCell>
        <mxCell id="GFKTN1XEtl8pyvi_96BX-4" value="" style="html=1;points=[];perimeter=orthogonalPerimeter;rounded=0;shadow=0;comic=0;labelBackgroundColor=none;strokeWidth=1;fontFamily=Verdana;fontSize=12;align=center;" vertex="1" parent="GFKTN1XEtl8pyvi_96BX-3">
          <mxGeometry x="45" y="129" width="10" height="141" as="geometry" />
        </mxCell>
        <mxCell id="GFKTN1XEtl8pyvi_96BX-7" value=":用户" style="shape=umlLifeline;perimeter=lifelinePerimeter;whiteSpace=wrap;html=1;container=1;collapsible=0;recursiveResize=0;outlineConnect=0;rounded=1;shadow=0;comic=0;labelBackgroundColor=none;strokeWidth=1;fontFamily=Verdana;fontSize=12;align=center;" vertex="1" parent="1">
          <mxGeometry x="177" y="207" width="100" height="338" as="geometry" />
        </mxCell>
        <mxCell id="GFKTN1XEtl8pyvi_96BX-8" value="" style="html=1;points=[];perimeter=orthogonalPerimeter;rounded=0;shadow=0;comic=0;labelBackgroundColor=none;strokeWidth=1;fontFamily=Verdana;fontSize=12;align=center;" vertex="1" parent="GFKTN1XEtl8pyvi_96BX-7">
          <mxGeometry x="45" y="100" width="10" height="205" as="geometry" />
        </mxCell>
        <mxCell id="GFKTN1XEtl8pyvi_96BX-9" value="" style="html=1;verticalAlign=bottom;endArrow=block;entryX=0;entryY=0;labelBackgroundColor=none;fontFamily=Verdana;fontSize=12;edgeStyle=elbowEdgeStyle;elbow=vertical;" edge="1" parent="1" source="GFKTN1XEtl8pyvi_96BX-8" target="GFKTN1XEtl8pyvi_96BX-2">
          <mxGeometry x="-0.0308" y="-57" relative="1" as="geometry">
            <mxPoint x="324" y="317" as="sourcePoint" />
            <mxPoint as="offset" />
          </mxGeometry>
        </mxCell>
        <mxCell id="GFKTN1XEtl8pyvi_96BX-10" value="&lt;span style=&quot;font-family: &amp;#34;verdana&amp;#34; ; font-size: 12px ; background-color: rgb(248 , 249 , 250)&quot;&gt;联系卖家&lt;/span&gt;" style="edgeLabel;html=1;align=center;verticalAlign=middle;resizable=0;points=[];" vertex="1" connectable="0" parent="GFKTN1XEtl8pyvi_96BX-9">
          <mxGeometry x="-0.1846" y="-2" relative="1" as="geometry">
            <mxPoint x="18" y="-2" as="offset" />
          </mxGeometry>
        </mxCell>
        <mxCell id="GFKTN1XEtl8pyvi_96BX-12" style="edgeStyle=orthogonalEdgeStyle;rounded=0;orthogonalLoop=1;jettySize=auto;html=1;entryX=-0.059;entryY=0.009;entryDx=0;entryDy=0;entryPerimeter=0;" edge="1" parent="1" source="GFKTN1XEtl8pyvi_96BX-2" target="GFKTN1XEtl8pyvi_96BX-4">
          <mxGeometry relative="1" as="geometry">
            <Array as="points">
              <mxPoint x="432" y="337" />
              <mxPoint x="432" y="337" />
            </Array>
          </mxGeometry>
        </mxCell>
        <mxCell id="GFKTN1XEtl8pyvi_96BX-13" value="发送消息" style="edgeLabel;html=1;align=center;verticalAlign=middle;resizable=0;points=[];" vertex="1" connectable="0" parent="GFKTN1XEtl8pyvi_96BX-12">
          <mxGeometry x="0.0769" y="1" relative="1" as="geometry">
            <mxPoint as="offset" />
          </mxGeometry>
        </mxCell>
        <mxCell id="GFKTN1XEtl8pyvi_96BX-16" value="买家" style="shape=umlActor;verticalLabelPosition=bottom;verticalAlign=top;html=1;outlineConnect=0;" vertex="1" parent="1">
          <mxGeometry x="212" y="122" width="30" height="60" as="geometry" />
        </mxCell>
        <mxCell id="GFKTN1XEtl8pyvi_96BX-19" style="edgeStyle=orthogonalEdgeStyle;rounded=0;orthogonalLoop=1;jettySize=auto;html=1;entryX=1.027;entryY=0.472;entryDx=0;entryDy=0;entryPerimeter=0;" edge="1" parent="1" source="GFKTN1XEtl8pyvi_96BX-4" target="GFKTN1XEtl8pyvi_96BX-2">
          <mxGeometry relative="1" as="geometry">
            <Array as="points">
              <mxPoint x="526" y="403" />
              <mxPoint x="526" y="403" />
            </Array>
          </mxGeometry>
        </mxCell>
        <mxCell id="GFKTN1XEtl8pyvi_96BX-20" value="返回卖家消息" style="edgeLabel;html=1;align=center;verticalAlign=middle;resizable=0;points=[];" vertex="1" connectable="0" parent="GFKTN1XEtl8pyvi_96BX-19">
          <mxGeometry x="0.194" relative="1" as="geometry">
            <mxPoint x="16" y="1" as="offset" />
          </mxGeometry>
        </mxCell>
        <mxCell id="GFKTN1XEtl8pyvi_96BX-21" style="edgeStyle=orthogonalEdgeStyle;rounded=0;orthogonalLoop=1;jettySize=auto;html=1;entryX=0.967;entryY=0.663;entryDx=0;entryDy=0;entryPerimeter=0;" edge="1" parent="1" source="GFKTN1XEtl8pyvi_96BX-2" target="GFKTN1XEtl8pyvi_96BX-8">
          <mxGeometry relative="1" as="geometry">
            <Array as="points">
              <mxPoint x="354" y="443" />
              <mxPoint x="354" y="443" />
            </Array>
          </mxGeometry>
        </mxCell>
        <mxCell id="GFKTN1XEtl8pyvi_96BX-22" value="与买家沟通" style="edgeLabel;html=1;align=center;verticalAlign=middle;resizable=0;points=[];" vertex="1" connectable="0" parent="GFKTN1XEtl8pyvi_96BX-21">
          <mxGeometry x="0.1907" y="2" relative="1" as="geometry">
            <mxPoint x="13" y="-1" as="offset" />
          </mxGeometry>
        </mxCell>
      </root>
    </mxGraphModel>
  </diagram>
</mxfile>
